<svg width="1000" height="1000" viewBox="0 0 1000 1000" fill="none" xmlns="http://www.w3.org/2000/svg">
<path fill-rule="evenodd" clip-rule="evenodd" d="M407.019 213.066C434.484 213.342 448.775 214.065 458.245 215.618C465.469 216.802 478.184 219.301 486.485 221.182C494.786 223.05 509.563 227.233 519.322 230.456C529.069 233.692 544.739 239.862 554.13 244.19C563.522 248.505 571.797 252.162 572.519 252.32C573.241 252.464 574.135 252.912 574.489 253.306C574.844 253.714 577.51 255.437 580.4 257.134C583.29 258.845 590.895 263.554 597.318 267.593C604.227 271.947 609.704 276.419 610.781 278.564C611.766 280.55 612.541 284.694 612.489 287.772C612.436 290.85 611.989 294.363 611.503 295.599C611.017 296.823 607.931 300.664 604.647 304.15C601.376 307.623 588.36 321.409 575.737 334.801C563.114 348.192 550.662 361.505 548.075 364.399C545.487 367.293 542.545 369.885 541.52 370.174C540.509 370.45 538.499 370.95 537.055 371.292C535.518 371.634 528.95 369.122 521.293 365.241C514.068 361.584 507.698 359.006 507.133 359.519C506.568 360.032 506.135 359.716 506.148 358.808C506.174 357.901 504.27 356.756 501.919 356.256C499.567 355.756 497.203 355.454 496.665 355.599C496.126 355.73 495.679 355.257 495.679 354.533C495.679 353.81 494.786 353.52 493.709 353.875C492.632 354.231 491.739 353.941 491.739 353.218C491.739 352.494 490.846 352.205 489.769 352.56C488.692 352.915 487.496 352.626 487.142 351.902C486.787 351.179 485.592 350.889 484.515 351.244C483.438 351.6 482.544 351.31 482.544 350.587C482.544 349.863 481.507 349.403 480.246 349.574C478.985 349.732 477.212 349.429 476.305 348.916C475.399 348.39 472.746 347.732 470.395 347.456C468.044 347.166 465.233 346.614 464.156 346.206C463.079 345.798 457.903 344.851 452.662 344.088C447.422 343.325 433.971 342.694 422.78 342.694C411.589 342.694 397.837 343.338 392.242 344.128C386.646 344.917 381.471 345.943 380.749 346.403C380.026 346.851 378.397 347.101 377.137 346.943C375.876 346.772 374.536 347.232 374.181 347.956C373.827 348.679 372.631 348.969 371.554 348.613C370.477 348.258 369.282 348.548 368.927 349.271C368.573 349.995 367.088 350.284 365.643 349.929C364.199 349.574 363.016 349.863 363.016 350.587C363.016 351.31 362.425 351.6 361.703 351.244C360.981 350.889 359.654 351.008 358.748 351.507C357.841 352.021 355.621 352.586 353.822 352.77C352.009 352.968 350.394 353.731 350.21 354.48C350.026 355.23 349.29 355.546 348.568 355.191C347.846 354.836 347.255 355.125 347.255 355.849C347.255 356.572 346.361 356.861 345.284 356.506C344.207 356.151 343.314 356.296 343.314 356.835C343.314 357.375 341.987 357.94 340.359 358.098C338.73 358.256 337.259 358.993 337.075 359.742C336.891 360.492 336.155 360.808 335.433 360.453C334.711 360.098 334.12 360.387 334.12 361.111C334.12 361.834 333.528 362.123 332.806 361.768C332.084 361.413 330.599 362.005 329.522 363.084C328.445 364.162 327.237 364.61 326.856 364.07C326.475 363.531 326.186 363.82 326.199 364.728C326.225 365.636 325.647 366.07 324.925 365.715C324.203 365.36 323.612 365.649 323.612 366.372C323.612 367.096 323.165 367.412 322.626 367.07C322.088 366.728 320.315 367.622 318.686 369.043C317.057 370.464 315.717 371.187 315.691 370.648C315.665 370.108 314.772 370.845 313.695 372.292C312.618 373.739 311.751 374.476 311.764 373.937C311.777 373.397 308.979 374.857 305.551 377.199C302.123 379.54 295.174 385.066 290.117 389.472C285.061 393.879 277.153 402.18 272.53 407.916C267.919 413.638 263.808 419.229 263.401 420.307C262.994 421.386 261.746 423.254 260.629 424.438C259.513 425.622 256.15 431.542 253.169 437.593C250.2 443.644 245.945 454.51 243.712 461.745C241.492 468.98 239.062 478.755 238.313 483.451C237.551 488.147 236.934 500.881 236.921 511.734C236.908 523.389 237.696 536.044 238.839 542.648C239.916 548.804 242.635 559.749 244.894 566.984C247.153 574.219 252.039 586.059 255.756 593.294C259.474 600.529 265.03 609.856 268.103 614.013C271.177 618.17 276.208 623.077 279.281 624.892C284.561 628.036 285.546 628.168 297.342 627.339C307.324 626.642 310.739 626.892 314.417 628.562C316.952 629.707 320.617 632.903 322.561 635.653C324.518 638.402 327.027 642.875 328.143 645.585C329.26 648.295 330.744 655.109 331.44 660.713C332.123 666.317 333.029 673.868 333.45 677.485C333.857 681.103 335.394 686.72 336.865 689.982C338.323 693.245 340.818 697.244 342.408 698.901C343.984 700.546 346.02 701.874 346.926 701.861C347.832 701.835 348.568 702.414 348.568 703.137C348.568 703.861 349.159 704.15 349.882 703.795C350.604 703.44 351.195 703.729 351.195 704.453C351.195 705.176 354.295 706.15 358.091 706.61C361.887 707.071 366.169 706.978 367.614 706.4C369.059 705.821 370.976 705.453 371.883 705.558C372.789 705.676 373.524 705.176 373.524 704.453C373.524 703.729 373.971 703.413 374.51 703.755C375.048 704.111 377.714 702.769 380.433 700.796C383.152 698.836 387.106 694.56 389.234 691.298C391.349 688.035 392.82 684.931 392.504 684.392C392.176 683.852 392.504 683.405 393.227 683.405C393.949 683.405 394.343 682.668 394.107 681.761C393.87 680.853 394.501 679.235 395.512 678.143C396.524 677.051 397.023 675.433 396.603 674.525C396.195 673.618 396.392 672.736 397.049 672.552C397.706 672.368 398.441 671.039 398.691 669.592C398.941 668.145 399.873 666.225 400.779 665.317C401.686 664.409 402.487 662.633 402.579 661.371C402.658 660.108 402.658 658.621 402.579 658.082C402.487 657.542 403.157 657.108 404.063 657.135C404.969 657.148 405.258 656.858 404.72 656.477C404.181 656.095 404.628 654.74 405.718 653.478C406.808 652.215 407.544 650.86 407.36 650.478C407.176 650.097 409.383 647.663 412.272 645.072C415.162 642.48 419.444 639.389 421.795 638.205C424.147 637.021 429.02 636.047 432.632 636.047C436.244 636.047 441.419 636.968 444.125 638.1C446.831 639.231 453.779 643.585 459.558 647.781C465.338 651.978 471.84 656.319 474.007 657.424C476.371 658.634 480.942 659.371 485.408 659.253C491.975 659.095 493.407 658.542 497.229 654.74C499.633 652.346 501.104 650.426 500.513 650.465C499.922 650.491 500.355 649.623 501.498 648.545C502.628 647.453 503.258 645.979 502.904 645.256C502.549 644.532 502.838 643.94 503.56 643.94C504.283 643.94 504.572 643.059 504.217 641.967C503.863 640.875 504.152 639.691 504.874 639.336C505.596 638.981 506.095 637.639 505.99 636.376C505.872 635.113 506.148 633.193 506.581 632.101C507.028 631.009 508.617 623.024 510.128 614.342C511.638 605.66 514.082 586.125 515.553 570.931C517.024 555.737 518.626 529.098 519.099 511.734C519.703 490.147 519.467 475.176 518.364 464.376C517.484 455.694 516.787 446.223 516.827 443.328C516.853 440.434 517.444 437.027 518.101 435.764C518.771 434.502 519.02 433.462 518.666 433.462C518.311 433.462 519.638 432.042 521.621 430.292C523.604 428.556 526.704 426.622 528.517 426.017C530.316 425.412 558.806 425.214 651.815 426.227L655.886 430.174C658.133 432.344 660.497 436.185 661.154 438.724C661.981 441.947 661.587 448.656 659.814 461.088C658.422 470.862 656.097 485.95 654.665 494.632C653.233 503.315 650.58 519.89 648.78 531.466C646.981 543.042 643.106 568.786 640.177 588.69C637.235 608.58 633.36 634.337 631.561 645.914C629.761 657.49 627.975 669.329 627.568 672.223C627.16 675.117 625.256 680.708 623.325 684.655C621.381 688.588 617.454 694.508 614.564 697.81C611.687 701.098 605.186 707.82 600.115 712.727C595.059 717.647 590.461 721.646 589.923 721.607C589.384 721.58 588.202 722.738 587.296 724.185C586.389 725.632 585.22 726.369 584.682 725.829C584.143 725.29 583.408 725.882 583.04 727.145C582.672 728.408 581.635 729.434 580.728 729.421C579.822 729.407 577.76 730.591 576.131 732.052C574.502 733.512 572.874 734.709 572.519 734.709C572.164 734.709 570.076 735.748 567.909 737.011C565.728 738.274 563.955 739.76 563.968 740.3C563.968 740.839 563.39 740.984 562.668 740.629C561.945 740.273 561.354 740.563 561.354 741.286C561.354 742.01 560.908 742.326 560.369 741.984C559.831 741.642 558.176 742.378 556.704 743.628C555.233 744.878 553.158 746.088 552.107 746.338C551.056 746.575 549.887 747.364 549.533 748.087C549.178 748.811 548.403 749.206 547.825 748.969C547.247 748.719 544.134 749.706 540.903 751.153C537.685 752.6 535.058 754.086 535.071 754.441C535.084 754.796 533.758 755.244 532.129 755.415C530.5 755.586 528.74 756.467 528.215 757.388C527.676 758.296 527.23 758.598 527.23 758.059C527.217 757.519 524.695 758.072 521.621 759.282C518.547 760.506 515.605 762.124 515.08 762.9C514.541 763.676 514.095 763.86 514.095 763.321C514.082 762.781 513.333 762.755 512.427 763.281C511.52 763.807 509.891 764.373 508.814 764.557C507.737 764.728 505.951 765.281 504.874 765.768C503.797 766.254 502.01 766.794 500.933 766.991C499.856 767.175 490.99 769.425 481.231 772.003C471.472 774.568 458.481 777.581 452.334 778.699C446.187 779.83 431.121 781.922 418.84 783.369C404.405 785.066 388.157 786 372.868 786C359.864 786.013 342.723 785.408 334.776 784.684C326.83 783.948 313.235 782.448 304.566 781.343C295.897 780.238 281.12 777.528 271.729 775.318C262.337 773.108 250.213 769.911 244.802 768.214C239.377 766.504 234.504 765.373 233.966 765.702C233.427 766.018 232.836 765.82 232.652 765.268C232.468 764.715 227.884 762.558 222.472 760.479C217.048 758.401 205.226 753.047 196.203 748.574C187.166 744.102 175.344 737.577 169.933 734.091C164.508 730.591 159.937 727.816 159.753 727.934C159.569 728.039 157.507 726.356 155.156 724.172C152.805 722.001 150.44 720.225 149.902 720.225C149.363 720.239 147.735 718.752 146.29 716.95C144.845 715.134 143.164 713.806 142.559 713.99C141.955 714.174 139.88 712.398 137.962 710.044C136.044 707.689 133.733 705.768 132.826 705.755C131.92 705.755 128.072 702.65 124.276 698.849C120.48 695.06 117.695 691.653 118.089 691.298C118.47 690.943 116.71 688.719 114.148 686.365C111.6 684.01 109.512 681.497 109.512 680.774C109.512 680.05 108.33 678.722 106.885 677.814C105.427 676.906 104.245 675.433 104.258 674.525C104.258 673.618 103.365 672.578 102.288 672.223C101.211 671.868 100.317 670.684 100.317 669.592C100.317 668.5 99.4242 667.317 98.3471 666.961C97.2701 666.606 96.6658 665.712 97.0336 664.988C97.3883 664.265 96.7972 663.37 95.7201 663.015C94.6431 662.66 93.7499 661.476 93.7499 660.384C93.7499 659.292 93.1588 658.411 92.4364 658.411C91.714 658.411 91.1229 657.529 91.1229 656.437C91.1229 655.346 90.5318 654.464 89.8094 654.464C89.087 654.464 88.7717 654.017 89.1133 653.478C89.4548 652.938 88.6798 651.307 87.3926 649.86C86.1185 648.413 84.9495 646.782 84.805 646.242C84.6736 645.703 83.8199 643.756 82.9136 641.928C82.0072 640.099 80.8251 638.626 80.2866 638.639C79.748 638.665 79.5904 638.086 79.9582 637.363C80.3128 636.639 80.1683 636.047 79.6298 636.047C79.0913 636.047 78.5527 635.311 78.4345 634.403C78.3294 633.495 76.1097 628.023 73.5221 622.235C70.9476 616.447 68.8197 610.974 68.8066 610.066C68.8066 609.159 68.2024 608.422 67.48 608.422C66.7576 608.422 66.4292 607.975 66.7444 607.436C67.0597 606.896 65.8118 601.411 63.9861 595.267C62.1603 589.124 60.3477 583.204 59.9668 582.112C59.599 581.021 59.0867 578.653 58.8503 576.85C58.6139 575.035 57.4317 568.523 56.2233 562.38C54.542 553.803 54.0298 543.555 54.0035 518.311C53.9641 487.608 54.2005 484.24 57.5631 467.665C59.5333 457.891 61.3066 448.722 61.5167 447.275C61.7137 445.828 62.5412 443.013 63.3687 441.026C64.1831 439.04 64.564 436.817 64.1962 436.093C63.8285 435.37 64.078 434.633 64.7216 434.449C65.3784 434.265 66.1139 432.634 66.3635 430.831C66.6131 429.016 67.2041 427.24 67.677 426.885C68.1367 426.53 68.7278 424.741 68.9905 422.938C69.2401 421.123 69.8311 419.347 70.304 418.992C70.7768 418.637 71.3679 417.15 71.6175 415.703C71.867 414.256 72.4581 412.77 72.931 412.415C73.4038 412.059 73.9949 410.573 74.2445 409.126C74.494 407.679 75.0851 406.192 75.558 405.837C76.0308 405.482 76.6219 403.995 76.8715 402.548C77.121 401.101 77.699 399.615 78.1456 399.26C78.5921 398.904 80.5098 395.497 82.4144 391.696C84.319 387.894 85.5799 384.789 85.2122 384.789C84.8444 384.789 85.4486 383.75 86.5388 382.487C87.629 381.224 88.4565 379.593 88.3908 378.87C88.3251 378.146 88.7717 377.252 89.3759 376.896C89.9933 376.541 92.108 373.726 94.0914 370.648C96.0748 367.57 97.4014 365.057 97.0336 365.057C96.6658 365.057 97.5722 363.728 99.0301 362.097C100.488 360.466 101.67 358.401 101.657 357.493C101.644 356.585 102.143 355.704 102.774 355.52C103.404 355.336 106.951 351.192 110.655 346.311C114.359 341.431 117.393 337.129 117.393 336.774C117.393 336.419 119.508 333.893 122.095 331.183C124.67 328.473 129.845 323.119 133.588 319.304C137.319 315.489 144.516 308.544 149.573 303.887C154.63 299.23 162.314 292.653 166.649 289.298C170.983 285.93 181.623 278.472 190.292 272.71C198.961 266.948 216.102 257.279 228.383 251.228C240.664 245.163 256.925 238.086 264.504 235.481C272.083 232.877 284.207 229.036 291.431 226.944C298.655 224.865 314.023 221.327 325.582 219.104C337.141 216.88 351.615 214.526 357.762 213.868C363.91 213.21 386.068 212.842 407.019 213.066ZM726.526 258.529C787.998 258.502 794.25 258.7 798.572 260.805C801.172 262.067 804.22 264.58 805.349 266.395C806.479 268.198 807.871 271.46 808.436 273.631C809.119 276.235 808.147 286.115 805.572 302.571C803.431 316.318 800.502 334.669 799.084 343.351C797.652 352.034 794.986 369.201 793.16 381.501C791.334 393.8 788.024 416.006 785.818 430.831C783.611 445.657 780.078 469.336 777.963 483.451C775.848 497.566 772.354 521.245 770.2 536.07C768.046 550.896 765.117 571.036 763.672 580.797C761.951 592.386 761.492 599.016 762.332 599.871C763.028 600.595 763.317 601.634 762.963 602.174C762.608 602.713 762.91 604.344 763.633 605.791C764.355 607.238 766.575 609.251 768.558 610.277C771.54 611.803 785.818 612.145 927.163 612.342L933.073 615.315C937.408 617.499 939.785 619.867 945 630.128L941.716 650.518C939.904 661.726 936.659 682.155 934.518 695.902C932.377 709.649 929.658 727.697 928.489 736.024C927.32 744.351 925.849 752.928 925.206 755.099C924.562 757.27 921.777 761.413 919.006 764.307C916.234 767.201 913.095 769.872 912.031 770.227C910.954 770.582 832.657 771.187 738.019 771.543C608.482 772.042 565.465 771.819 563.981 770.674C562.352 769.411 563.929 768.043 573.123 762.781C579.244 759.282 585.115 755.533 586.166 754.441C587.23 753.349 588.347 752.771 588.649 753.126C588.951 753.481 593.955 750.232 599.774 745.891C605.593 741.549 614.8 733.551 620.251 728.131C625.689 722.699 631.206 717.081 632.506 715.634C633.807 714.187 634.884 712.267 634.897 711.359C634.897 710.451 635.501 709.715 636.223 709.715C636.946 709.715 638.864 707.492 640.479 704.782C642.108 702.072 643.29 699.401 643.106 698.862C642.935 698.323 643.382 697.875 644.104 697.875C644.827 697.875 645.116 697.283 644.761 696.56C644.407 695.836 644.695 695.244 645.418 695.244C646.14 695.244 646.429 694.652 646.075 693.929C645.72 693.205 646.009 692.613 646.731 692.613C647.454 692.613 647.743 692.021 647.388 691.298C647.034 690.574 647.323 689.982 648.045 689.982C648.767 689.982 649.056 689.101 648.702 688.009C648.347 686.917 648.649 685.891 649.385 685.707C650.133 685.523 650.908 683.3 651.119 680.774C651.329 678.248 651.907 675.433 652.406 674.525C652.892 673.618 653.286 671.552 653.259 669.921C653.233 668.29 654.14 661.344 655.269 654.464C656.386 647.584 658.763 632.496 660.523 620.919C662.296 609.343 665.239 590.111 667.064 578.166C668.903 566.221 670.676 554.093 671.031 551.198C671.386 548.304 672.844 538.53 674.249 529.493C675.668 520.442 678.36 503.275 680.239 491.344C682.13 479.412 683.825 467.27 684.022 464.376C684.219 461.482 684.862 458.22 685.453 457.141C686.044 456.062 686.596 450.182 686.662 444.091C686.754 436.251 686.307 432.897 685.151 432.581C684.245 432.344 683.811 431.555 684.166 430.831C684.521 430.108 683.68 427.003 682.275 423.925C680.869 420.847 678.216 417.295 676.364 416.032C674.275 414.598 673.369 413.112 673.986 412.099C674.634 411.02 674.416 410.801 673.33 411.441C672.331 412.033 671.176 411.388 670.374 409.784C669.652 408.337 668.47 407.455 667.747 407.81C667.025 408.165 666.434 407.876 666.434 407.153C666.434 406.429 663.176 404.653 659.21 403.206C653.562 401.141 648.702 400.575 621.775 400.575L622.261 396.958C622.524 394.971 623.049 392.445 623.417 391.367C623.785 390.288 625.742 379.922 627.765 368.346C629.787 356.769 631.547 346.114 631.679 344.667C631.823 343.22 632.27 340.549 632.703 338.747C633.124 336.932 635.317 325.684 637.563 313.753C639.822 301.821 641.898 289.982 642.2 287.443C642.489 284.904 643.369 280.182 644.157 276.919C644.945 273.657 646.85 269.145 648.4 266.882C649.936 264.62 652.997 261.818 655.203 260.66C658.724 258.818 667.419 258.555 726.526 258.529ZM344.628 412.875C350.959 413.125 355.162 414.217 360.902 417.098C365.486 419.387 371.029 423.649 374.47 427.543C378.765 432.397 380.998 436.527 383.008 443.328C384.847 449.564 385.477 454.444 384.978 458.457C384.571 461.719 383.047 467.639 381.589 471.611C379.934 476.137 376.572 481.32 372.618 485.45C369.098 489.121 363.148 493.488 359.194 495.316C353.31 498.013 350.131 498.566 340.805 498.5C334.592 498.461 328.196 498.171 326.567 497.842C324.938 497.527 323.625 496.961 323.651 496.606C323.664 496.251 322.193 495.211 320.367 494.304C318.542 493.396 316.742 492.659 316.387 492.659C316.033 492.659 313.34 490.147 310.424 487.068C307.495 483.99 305.131 481.03 305.17 480.491C305.196 479.952 304.632 479.504 303.909 479.504C303.187 479.504 302.688 479.057 302.806 478.518C302.924 477.978 302.333 475.9 301.492 473.914C300.652 471.927 299.969 469.704 299.969 468.98C299.969 468.257 299.522 467.665 298.984 467.665C298.445 467.665 298.064 463.074 298.156 457.47C298.235 451.866 299.089 445.21 300.034 442.671C300.993 440.132 301.611 437.764 301.414 437.409C301.203 437.054 301.991 436.304 303.134 435.764C304.277 435.225 304.921 434.186 304.566 433.462C304.211 432.739 304.5 432.147 305.223 432.147C305.945 432.147 306.536 431.555 306.536 430.831C306.536 430.108 308.598 427.451 311.133 424.912C313.655 422.373 315.731 420.61 315.731 420.965C315.731 421.32 318.095 420.136 320.985 418.334C323.874 416.519 328.458 414.48 331.164 413.783C333.87 413.085 339.925 412.678 344.628 412.875ZM453.648 422.281C454.725 422.517 457.982 423.109 460.872 423.609C463.762 424.109 468.188 425.583 470.723 426.898C473.245 428.214 477.212 431.265 479.51 433.673C481.822 436.093 484.909 440.724 486.38 443.986C487.956 447.472 489.073 452.734 489.086 456.812C489.099 460.614 488.219 465.784 487.142 468.323C486.052 470.862 485.618 472.94 486.157 472.953C486.695 472.953 486.551 473.4 485.828 473.94C485.106 474.466 482.439 477.268 479.891 480.162C477.343 483.056 474.834 485.569 474.309 485.753C473.784 485.937 471.432 486.884 469.081 487.871C466.73 488.844 462.448 490.094 459.558 490.62C456.056 491.269 451.787 490.892 446.752 489.489C441.563 488.055 437.242 485.648 432.96 481.806C429.519 478.728 426.563 475.768 426.393 475.229C426.209 474.69 425.434 472.019 424.646 469.309C423.871 466.599 422.912 463.482 422.518 462.403C422.111 461.324 421.756 458.943 421.703 457.141C421.651 455.326 422.019 453.116 422.518 452.208C423.03 451.3 423.582 449.077 423.766 447.275C423.949 445.46 424.541 443.986 425.079 443.986C425.618 443.986 426.34 442.658 426.682 441.026C427.023 439.395 427.325 437.922 427.338 437.738C427.365 437.553 430.189 435.028 433.617 432.121C437.045 429.2 440.591 426.24 441.498 425.543C442.404 424.833 443.008 424.556 442.851 424.912C442.693 425.28 444.611 424.741 447.12 423.715C449.628 422.702 452.557 422.057 453.648 422.281Z" fill="white"/>
</svg>
