<svg width="1121" height="340" viewBox="0 0 1121 340" fill="none" xmlns="http://www.w3.org/2000/svg">
<path d="M144.128 72.576V91.648C144.128 98.4747 142.891 105.045 140.416 111.36C137.941 117.589 134.485 123.349 130.048 128.64C125.611 133.931 120.405 138.539 114.432 142.464C108.459 146.389 101.931 149.419 94.848 151.552C87.5947 153.771 80.0853 154.88 72.32 154.88C64.0427 154.88 56.2347 153.643 48.896 151.168C41.5573 148.608 34.9013 145.024 28.928 140.416C23.9787 136.576 19.1573 131.541 14.464 125.312C9.77067 119.083 6.144 111.488 3.584 102.528C1.19467 94.5067 0 86.144 0 77.44C0 68.48 1.10933 60.2027 3.328 52.608C5.632 44.928 8.87467 37.888 13.056 31.488C17.7493 24.2347 23.2533 18.3467 29.568 13.824C35.968 9.30133 42.2827 5.97333 48.512 3.84C52.2667 2.64533 56.192 1.70667 60.288 1.024C64.4693 0.341334 68.7787 0 73.216 0C80.384 0 87.0827 0.853333 93.312 2.56C99.6267 4.26666 105.557 6.784 111.104 10.112C116.139 13.184 120.789 17.0667 125.056 21.76C129.408 26.4533 132.992 31.872 135.808 38.016C137.173 41.0027 138.325 44.1173 139.264 47.36C140.288 50.6027 141.056 54.016 141.568 57.6H110.848C110.336 54.8693 109.312 52.0107 107.776 49.024C106.325 45.952 104.277 43.0507 101.632 40.32C96.8533 35.6267 91.0507 32.4267 84.224 30.72C80.7253 29.8667 77.056 29.44 73.216 29.44C68.352 29.44 63.6587 30.208 59.136 31.744C54.6133 33.1947 50.6027 35.328 47.104 38.144C39.8507 44.032 34.8587 51.8827 32.128 61.696C30.7627 66.6453 30.08 71.9787 30.08 77.696C30.08 83.6693 30.8053 89.1307 32.256 94.08C33.792 99.0293 35.6693 103.168 37.888 106.496C40.192 110.165 43.0507 113.451 46.464 116.352C49.9627 119.253 54.1013 121.515 58.88 123.136C63.3173 124.672 68.1387 125.44 73.344 125.44C77.0987 125.44 80.7253 125.013 84.224 124.16C87.7227 123.307 90.9653 122.112 93.952 120.576C96.768 119.125 99.4133 117.291 101.888 115.072C104.448 112.768 106.581 110.165 108.288 107.264C109.995 104.533 111.36 101.504 112.384 98.176H73.344V72.576H144.128Z" fill="white"/>
<path d="M155.59 153.6V1.28H185.67V54.656H208.07V1.28H238.15V153.6H208.07V82.816H185.67V153.6H155.59Z" fill="white"/>
<path d="M249.625 76.544C249.625 68.096 250.948 60.1173 253.593 52.608C256.238 45.0133 259.95 37.9733 264.729 31.488C269.422 25.088 275.012 19.5413 281.497 14.848C288.068 10.1547 295.108 6.528 302.617 3.968C306.372 2.688 310.254 1.70667 314.265 1.024C318.361 0.341334 322.5 0 326.681 0C335.3 0 343.406 1.36533 351.001 4.09599C358.596 6.74133 365.55 10.3253 371.865 14.848C379.118 20.224 385.006 26.24 389.529 32.896C394.052 39.4667 397.422 45.9947 399.641 52.48C400.921 56.32 401.902 60.2453 402.585 64.256C403.268 68.2667 403.609 72.3627 403.609 76.544C403.609 84.9067 402.286 93.056 399.641 100.992C397.081 108.928 393.454 116.181 388.761 122.752C383.982 129.237 378.308 134.912 371.737 139.776C365.252 144.555 358.297 148.224 350.873 150.784C343.108 153.515 335.044 154.88 326.681 154.88C318.148 154.88 310.041 153.515 302.361 150.784C294.681 148.053 287.684 144.341 281.369 139.648C274.969 134.869 269.38 129.28 264.601 122.88C259.908 116.48 256.238 109.227 253.593 101.12C252.313 97.28 251.332 93.312 250.649 89.216C249.966 85.0347 249.625 80.8107 249.625 76.544ZM279.705 76.8C279.705 82.0053 280.516 87.1253 282.137 92.16C283.758 97.1947 285.977 101.632 288.793 105.472C291.865 109.739 295.364 113.365 299.289 116.352C303.214 119.253 307.438 121.429 311.961 122.88C316.74 124.587 321.689 125.44 326.809 125.44C331.929 125.44 336.836 124.629 341.529 123.008C346.222 121.301 350.489 118.955 354.329 115.968C358.169 113.067 361.54 109.611 364.441 105.6C367.342 101.504 369.561 97.024 371.097 92.16C371.865 89.7707 372.462 87.296 372.889 84.736C373.316 82.176 373.529 79.5307 373.529 76.8C373.529 71.7653 372.718 66.8587 371.097 62.08C369.476 57.216 367.257 52.864 364.441 49.024C358.468 40.9173 350.788 35.2 341.401 31.872C336.708 30.2507 331.844 29.44 326.809 29.44C322.713 29.44 318.276 30.1227 313.497 31.488C308.718 32.768 303.94 35.1573 299.161 38.656C295.236 41.5573 291.78 44.9707 288.793 48.896C285.892 52.8213 283.673 57.1307 282.137 61.824C281.369 64.2133 280.772 66.688 280.345 69.248C279.918 71.7227 279.705 74.24 279.705 76.8Z" fill="white"/>
<path d="M455.872 46.976V38.016C455.872 29.7387 453.099 25.6 447.552 25.6C444.992 25.6 442.987 26.5813 441.536 28.544C440.085 30.5067 439.36 33.3227 439.36 36.992C439.36 38.1013 439.445 39.296 439.616 40.576C439.872 41.856 440.427 43.2213 441.28 44.672C441.963 45.952 442.987 47.488 444.352 49.28C445.717 50.9867 447.424 52.8213 449.472 54.784C450.496 55.8933 451.648 57.0453 452.928 58.24C454.123 59.52 455.488 60.8427 457.024 62.208C461.632 66.3893 465.856 70.4853 469.696 74.496C473.621 78.5067 476.821 82.048 479.296 85.12C481.771 88.3627 483.733 91.4773 485.184 94.464C486.635 97.4507 487.701 100.523 488.384 103.68C488.725 105.301 488.939 106.965 489.024 108.672C489.195 110.379 489.28 112.171 489.28 114.048C489.28 119.168 488.725 123.904 487.616 128.256C486.507 132.523 484.8 136.363 482.496 139.776C480.363 143.019 477.547 145.792 474.048 148.096C470.635 150.4 466.88 152.064 462.784 153.088C458.261 154.283 453.397 154.88 448.192 154.88C437.696 154.88 429.163 152.619 422.592 148.096C416.107 143.659 411.797 137.045 409.664 128.256C408.555 123.989 408 119.083 408 113.536V100.096H436.16V113.664C436.16 118.613 437.184 122.453 439.232 125.184C441.109 127.915 444.011 129.28 447.936 129.28C449.301 129.28 450.624 129.109 451.904 128.768C453.184 128.341 454.251 127.701 455.104 126.848C455.872 126.08 456.597 125.141 457.28 124.032C457.963 122.837 458.475 121.387 458.816 119.68C458.901 118.912 458.987 118.101 459.072 117.248C459.157 116.309 459.2 115.371 459.2 114.432C459.2 112.64 459.072 111.104 458.816 109.824C458.56 108.459 458.048 107.008 457.28 105.472C456.427 103.936 455.232 102.357 453.696 100.736C452.245 99.1147 450.539 97.3227 448.576 95.36C447.467 94.336 446.229 93.2267 444.864 92.032C443.584 90.8373 442.176 89.5573 440.64 88.192C435.861 83.9253 431.68 80.0427 428.096 76.544C424.597 72.96 421.611 69.504 419.136 66.176C416.661 62.9333 414.699 59.8187 413.248 56.832C411.883 53.76 410.859 50.6453 410.176 47.488C409.835 45.952 409.579 44.3307 409.408 42.624C409.323 40.9173 409.28 39.168 409.28 37.376C409.28 32.6827 409.749 28.3307 410.688 24.32C411.712 20.224 413.291 16.64 415.424 13.568C419.605 7.59467 425.664 3.584 433.6 1.536C437.525 0.511999 442.005 0 447.04 0C456.597 0 464.448 1.92 470.592 5.75999C472.64 7.03999 474.816 9.04533 477.12 11.776C479.424 14.5067 481.216 18.2187 482.496 22.912C483.52 26.752 484.032 31.0187 484.032 35.712V46.976H455.872Z" fill="white"/>
<path d="M515.76 153.6V29.44H492.08V1.28H569.52V29.44H545.84V153.6H515.76Z" fill="white"/>
<path d="M262.215 339.6V187.28H292.295V311.44H323.655V339.6H262.215Z" fill="white"/>
<path d="M335.215 339.6V187.28H365.295V339.6H335.215Z" fill="white"/>
<path d="M410.795 302.352V339.6H380.715V187.28H415.915L427.307 228.24C428.331 231.739 429.398 235.664 430.507 240.016C431.616 244.283 432.683 248.592 433.707 252.944C434.731 257.211 435.584 261.008 436.267 264.336C437.803 271.419 439.168 277.989 440.363 284.048C441.558 290.107 442.752 296.336 443.947 302.736C444.459 305.808 444.928 308.795 445.355 311.696C445.782 314.683 446.208 317.584 446.635 320.4H449.195C448.512 315.877 447.872 311.824 447.275 308.24C446.678 304.571 446.08 300.816 445.483 296.976C444.886 293.136 444.246 288.571 443.563 283.28C442.966 279.525 442.368 275.301 441.771 270.608C441.174 265.829 440.619 261.136 440.107 256.528C439.595 251.835 439.254 247.696 439.083 244.112C438.827 240.955 438.614 237.883 438.443 234.896C438.358 231.824 438.315 228.88 438.315 226.064V187.28H468.395V339.6H435.115L423.339 300.048C422.486 297.317 421.504 293.904 420.395 289.808C419.286 285.712 418.091 281.36 416.811 276.752C415.616 272.059 414.507 267.451 413.483 262.928C412.032 256.699 410.582 250.299 409.131 243.728C407.68 237.072 406.4 230.544 405.291 224.144C404.694 221.072 404.139 218.043 403.627 215.056C403.115 212.069 402.646 209.211 402.219 206.48H399.659C400.512 212.027 401.451 217.915 402.475 224.144C403.499 230.288 404.523 236.816 405.547 243.728C406.4 250.384 407.254 257.125 408.107 263.952C408.96 270.693 409.643 277.307 410.155 283.792C410.326 287.035 410.454 290.235 410.539 293.392C410.71 296.464 410.795 299.451 410.795 302.352Z" fill="white"/>
<path d="M513.795 187.28V215.184C513.795 217.317 513.667 219.536 513.411 221.84C513.24 224.144 512.942 226.661 512.515 229.392C512.003 232.123 511.491 234.939 510.979 237.84C510.467 240.741 509.827 243.771 509.059 246.928C508.632 248.464 508.248 250 507.907 251.536C507.48 253.157 507.054 254.779 506.627 256.4H509.187C509.443 255.376 509.784 253.883 510.211 251.92C510.723 249.872 511.278 247.824 511.875 245.776C512.472 243.728 513.027 241.979 513.539 240.528C514.392 237.797 515.032 235.749 515.459 234.384C515.971 232.933 516.483 231.525 516.995 230.16C517.507 228.795 518.275 226.875 519.299 224.4C519.811 223.12 520.323 221.883 520.835 220.688C521.347 219.408 521.859 218.213 522.371 217.104L536.195 187.28H566.275L537.475 246.928L568.835 339.6H538.755L518.659 280.208L513.795 287.376V339.6H483.715V187.28H513.795Z" fill="white"/>
<path fill-rule="evenodd" clip-rule="evenodd" d="M810.059 9.63777C825.903 9.79686 834.147 10.2135 839.611 11.1075C843.778 11.7894 851.113 13.2288 855.902 14.3122C860.691 15.388 869.215 17.7972 874.845 19.6534C880.467 21.5171 889.507 25.0703 894.925 27.5628C900.343 30.0478 905.116 32.1539 905.533 32.2449C905.95 32.3282 906.465 32.5858 906.67 32.8131C906.874 33.0479 908.413 34.0404 910.08 35.0177C911.747 36.0026 916.134 38.7149 919.839 41.0407C923.825 43.5484 926.984 46.1243 927.606 47.3592C928.174 48.5032 928.621 50.8897 928.591 52.6625C928.56 54.4353 928.303 56.4581 928.023 57.1703C927.742 57.8748 925.962 60.0871 924.067 62.0947C922.18 64.0948 914.671 72.0346 907.39 79.747C900.108 87.4595 892.925 95.1265 891.432 96.7933C889.939 98.46 888.242 99.9525 887.651 100.119C887.067 100.278 885.908 100.566 885.074 100.763C884.188 100.96 880.399 99.5131 875.982 97.2782C871.814 95.172 868.139 93.6871 867.813 93.9826C867.488 94.278 867.238 94.0962 867.245 93.5734C867.26 93.0507 866.161 92.3916 864.805 92.1037C863.449 91.8158 862.085 91.6415 861.774 91.7249C861.464 91.8006 861.206 91.5279 861.206 91.1112C861.206 90.6945 860.691 90.5278 860.069 90.7324C859.448 90.937 858.933 90.7703 858.933 90.3536C858.933 89.9369 858.418 89.7702 857.796 89.9748C857.175 90.1793 856.485 90.0127 856.281 89.596C856.076 89.1793 855.387 89.0126 854.765 89.2172C854.144 89.4217 853.629 89.2551 853.629 88.8384C853.629 88.4217 853.03 88.1565 852.303 88.255C851.575 88.3459 850.552 88.1717 850.029 87.8762C849.507 87.5732 847.976 87.1944 846.62 87.0353C845.263 86.8686 843.642 86.5504 843.021 86.3155C842.399 86.0807 839.414 85.5352 836.39 85.0958C833.367 84.6564 825.608 84.2927 819.152 84.2927C812.696 84.2927 804.763 84.6639 801.535 85.1185C798.307 85.5731 795.321 86.164 794.905 86.4292C794.488 86.6868 793.548 86.8307 792.821 86.7398C792.094 86.6413 791.321 86.9065 791.116 87.3232C790.911 87.7398 790.222 87.9065 789.601 87.702C788.979 87.4974 788.29 87.6641 788.085 88.0808C787.881 88.4974 787.024 88.6641 786.191 88.4596C785.357 88.255 784.675 88.4217 784.675 88.8384C784.675 89.2551 784.334 89.4217 783.918 89.2172C783.501 89.0126 782.736 89.0808 782.213 89.3687C781.69 89.6642 780.409 89.9899 779.371 90.096C778.326 90.2096 777.394 90.6491 777.288 91.0809C777.181 91.5127 776.757 91.6946 776.34 91.49C775.924 91.2855 775.583 91.4521 775.583 91.8688C775.583 92.2855 775.067 92.4522 774.446 92.2476C773.825 92.0431 773.309 92.1264 773.309 92.437C773.309 92.7476 772.544 93.0734 771.605 93.1643C770.665 93.2552 769.816 93.6795 769.71 94.1113C769.604 94.5432 769.18 94.725 768.763 94.5204C768.346 94.3159 768.005 94.4826 768.005 94.8993C768.005 95.3159 767.664 95.4826 767.248 95.2781C766.831 95.0735 765.975 95.4144 765.353 96.0357C764.732 96.6569 764.035 96.9145 763.815 96.6039C763.595 96.2933 763.429 96.4599 763.436 96.9827C763.451 97.5054 763.118 97.7554 762.701 97.5509C762.284 97.3463 761.943 97.513 761.943 97.9297C761.943 98.3464 761.686 98.5282 761.375 98.3312C761.065 98.1343 760.042 98.6494 759.102 99.4676C758.162 100.286 757.39 100.703 757.374 100.392C757.359 100.081 756.844 100.506 756.223 101.339C755.601 102.172 755.101 102.597 755.109 102.286C755.116 101.975 753.502 102.816 751.525 104.165C749.547 105.513 745.539 108.695 742.621 111.233C739.704 113.771 735.143 118.552 732.475 121.855C729.816 125.151 727.444 128.37 727.209 128.992C726.974 129.613 726.254 130.689 725.61 131.371C724.966 132.052 723.026 135.462 721.306 138.947C719.594 142.432 717.139 148.69 715.851 152.856C714.57 157.023 713.168 162.652 712.737 165.357C712.297 168.062 711.941 175.395 711.933 181.646C711.926 188.358 712.38 195.646 713.04 199.45C713.661 202.995 715.229 209.298 716.533 213.465C717.836 217.632 720.655 224.451 722.799 228.618C724.944 232.784 728.149 238.156 729.922 240.55C731.695 242.944 734.597 245.77 736.37 246.815C739.416 248.626 739.985 248.702 746.789 248.224C752.548 247.823 754.518 247.967 756.639 248.929C758.102 249.588 760.216 251.429 761.337 253.013C762.466 254.596 763.914 257.172 764.558 258.733C765.202 260.293 766.058 264.218 766.46 267.445C766.854 270.672 767.376 275.021 767.619 277.105C767.854 279.188 768.74 282.423 769.589 284.302C770.43 286.181 771.87 288.484 772.787 289.439C773.696 290.386 774.87 291.151 775.393 291.143C775.916 291.128 776.34 291.461 776.34 291.878C776.34 292.295 776.681 292.461 777.098 292.257C777.515 292.052 777.856 292.219 777.856 292.636C777.856 293.052 779.644 293.613 781.834 293.878C784.024 294.143 786.494 294.09 787.327 293.757C788.161 293.424 789.267 293.211 789.79 293.272C790.313 293.34 790.737 293.052 790.737 292.636C790.737 292.219 790.995 292.037 791.305 292.234C791.616 292.439 793.154 291.666 794.723 290.529C796.291 289.401 798.572 286.938 799.8 285.06C801.02 283.181 801.868 281.393 801.686 281.082C801.497 280.771 801.686 280.514 802.103 280.514C802.52 280.514 802.747 280.09 802.611 279.567C802.474 279.044 802.838 278.112 803.422 277.483C804.005 276.855 804.293 275.923 804.05 275.4C803.816 274.877 803.929 274.37 804.308 274.264C804.687 274.157 805.111 273.392 805.255 272.559C805.399 271.726 805.937 270.619 806.46 270.097C806.983 269.574 807.445 268.551 807.498 267.824C807.544 267.097 807.544 266.24 807.498 265.93C807.445 265.619 807.832 265.369 808.354 265.384C808.877 265.392 809.044 265.225 808.733 265.006C808.423 264.786 808.68 264.005 809.309 263.278C809.938 262.551 810.362 261.771 810.256 261.551C810.15 261.331 811.423 259.93 813.09 258.437C814.757 256.945 817.227 255.164 818.584 254.482C819.94 253.801 822.751 253.24 824.835 253.24C826.919 253.24 829.904 253.77 831.465 254.422C833.026 255.073 837.034 257.581 840.368 259.998C843.702 262.415 847.453 264.915 848.703 265.551C850.067 266.248 852.704 266.672 855.281 266.604C859.069 266.513 859.895 266.195 862.1 264.006C863.487 262.627 864.335 261.521 863.994 261.543C863.653 261.558 863.904 261.058 864.563 260.437C865.214 259.808 865.578 258.96 865.373 258.543C865.169 258.126 865.336 257.786 865.752 257.786C866.169 257.786 866.336 257.278 866.131 256.649C865.927 256.02 866.093 255.338 866.51 255.134C866.927 254.929 867.215 254.157 867.154 253.429C867.086 252.702 867.245 251.596 867.495 250.967C867.753 250.338 868.67 245.74 869.541 240.739C870.412 235.739 871.822 224.489 872.67 215.738C873.519 206.988 874.444 191.646 874.716 181.646C875.065 169.213 874.928 160.592 874.292 154.372C873.784 149.371 873.383 143.917 873.405 142.25C873.421 140.583 873.762 138.621 874.14 137.894C874.527 137.166 874.671 136.568 874.466 136.568C874.262 136.568 875.027 135.75 876.171 134.742C877.315 133.742 879.104 132.628 880.149 132.28C881.187 131.931 897.622 131.818 951.277 132.401L953.626 134.674C954.922 135.924 956.286 138.136 956.665 139.598C957.142 141.454 956.915 145.318 955.892 152.478C955.089 158.107 953.747 166.796 952.922 171.797C952.096 176.797 950.565 186.343 949.527 193.01C948.489 199.677 946.254 214.503 944.564 225.966C942.866 237.421 940.631 252.255 939.593 258.922C938.555 265.589 937.524 272.407 937.29 274.074C937.055 275.741 935.956 278.961 934.842 281.234C933.721 283.499 931.455 286.908 929.788 288.81C928.129 290.704 924.378 294.575 921.453 297.401C918.536 300.234 915.884 302.538 915.573 302.515C915.262 302.5 914.58 303.166 914.058 304C913.535 304.833 912.86 305.257 912.55 304.947C912.239 304.636 911.815 304.977 911.603 305.704C911.39 306.432 910.792 307.023 910.269 307.015C909.746 307.007 908.556 307.689 907.617 308.53C906.677 309.371 905.738 310.061 905.533 310.061C905.329 310.061 904.124 310.659 902.873 311.386C901.616 312.114 900.593 312.97 900.6 313.281C900.6 313.591 900.267 313.674 899.85 313.47C899.433 313.265 899.092 313.432 899.092 313.849C899.092 314.265 898.835 314.447 898.524 314.25C898.214 314.053 897.259 314.478 896.41 315.197C895.561 315.917 894.364 316.614 893.758 316.758C893.152 316.894 892.477 317.349 892.273 317.766C892.068 318.182 891.621 318.41 891.288 318.273C890.954 318.129 889.159 318.697 887.295 319.531C885.438 320.364 883.923 321.22 883.93 321.425C883.938 321.629 883.173 321.887 882.233 321.985C881.293 322.084 880.278 322.592 879.975 323.122C879.664 323.645 879.407 323.819 879.407 323.508C879.399 323.198 877.944 323.516 876.171 324.213C874.398 324.917 872.701 325.849 872.398 326.296C872.087 326.743 871.829 326.849 871.829 326.539C871.822 326.228 871.39 326.213 870.867 326.516C870.344 326.819 869.405 327.145 868.783 327.251C868.162 327.349 867.131 327.668 866.51 327.948C865.889 328.228 864.858 328.539 864.237 328.652C863.616 328.758 858.501 330.054 852.871 331.539C847.241 333.016 839.747 334.751 836.201 335.395C832.655 336.047 823.964 337.251 816.879 338.085C808.551 339.062 799.178 339.6 790.358 339.6C782.857 339.607 772.969 339.259 768.384 338.842C763.8 338.418 755.957 337.554 750.956 336.918C745.955 336.282 737.431 334.721 732.013 333.448C726.595 332.175 719.602 330.334 716.48 329.357C713.35 328.372 710.539 327.721 710.229 327.91C709.918 328.092 709.577 327.978 709.471 327.66C709.365 327.342 706.72 326.099 703.598 324.902C700.469 323.705 693.649 320.622 688.444 318.046C683.231 315.47 676.411 311.712 673.289 309.705C670.16 307.689 667.523 306.091 667.417 306.159C667.311 306.22 666.121 305.25 664.765 303.992C663.408 302.742 662.044 301.719 661.734 301.719C661.423 301.727 660.484 300.871 659.65 299.833C658.817 298.787 657.847 298.022 657.498 298.128C657.15 298.234 655.952 297.212 654.846 295.855C653.74 294.499 652.406 293.393 651.883 293.386C651.361 293.386 649.14 291.598 646.951 289.408C644.761 287.226 643.154 285.264 643.382 285.06C643.601 284.855 642.586 283.575 641.108 282.218C639.638 280.862 638.434 279.415 638.434 278.999C638.434 278.582 637.752 277.817 636.918 277.294C636.077 276.771 635.395 275.923 635.403 275.4C635.403 274.877 634.888 274.279 634.266 274.074C633.645 273.87 633.13 273.188 633.13 272.559C633.13 271.93 632.614 271.248 631.993 271.044C631.372 270.839 631.023 270.324 631.235 269.907C631.44 269.491 631.099 268.975 630.477 268.771C629.856 268.566 629.341 267.884 629.341 267.256C629.341 266.627 629 266.119 628.583 266.119C628.166 266.119 627.825 265.612 627.825 264.983C627.825 264.354 627.484 263.846 627.068 263.846C626.651 263.846 626.469 263.589 626.666 263.278C626.863 262.968 626.416 262.028 625.674 261.195C624.939 260.361 624.264 259.422 624.181 259.111C624.105 258.801 623.612 257.679 623.09 256.626C622.567 255.573 621.885 254.725 621.574 254.732C621.263 254.747 621.173 254.414 621.385 253.997C621.589 253.581 621.506 253.24 621.195 253.24C620.885 253.24 620.574 252.816 620.506 252.293C620.445 251.77 619.165 248.618 617.672 245.285C616.187 241.951 614.959 238.8 614.952 238.277C614.952 237.754 614.603 237.33 614.186 237.33C613.77 237.33 613.58 237.072 613.762 236.762C613.944 236.451 613.224 233.292 612.171 229.754C611.118 226.216 610.072 222.807 609.852 222.178C609.64 221.549 609.344 220.185 609.208 219.147C609.072 218.102 608.39 214.352 607.693 210.814C606.723 205.874 606.427 199.972 606.412 185.434C606.389 167.751 606.526 165.812 608.465 156.266C609.602 150.637 610.625 145.356 610.746 144.523C610.86 143.689 611.337 142.068 611.815 140.924C612.284 139.78 612.504 138.5 612.292 138.083C612.08 137.666 612.224 137.242 612.595 137.136C612.974 137.03 613.398 136.091 613.542 135.053C613.686 134.007 614.027 132.984 614.3 132.78C614.565 132.575 614.906 131.545 615.058 130.507C615.202 129.461 615.543 128.439 615.815 128.234C616.088 128.03 616.429 127.173 616.573 126.34C616.717 125.507 617.058 124.651 617.331 124.446C617.604 124.242 617.945 123.385 618.089 122.552C618.233 121.719 618.574 120.863 618.846 120.658C619.119 120.453 619.46 119.597 619.604 118.764C619.748 117.931 620.081 117.075 620.339 116.87C620.597 116.665 621.703 114.703 622.802 112.514C623.9 110.324 624.628 108.536 624.416 108.536C624.203 108.536 624.552 107.938 625.181 107.21C625.81 106.483 626.287 105.544 626.249 105.127C626.211 104.71 626.469 104.195 626.818 103.991C627.174 103.786 628.394 102.165 629.538 100.392C630.682 98.6191 631.447 97.1721 631.235 97.1721C631.023 97.1721 631.546 96.4069 632.387 95.4675C633.228 94.528 633.91 93.3386 633.902 92.8158C633.895 92.2931 634.183 91.7855 634.547 91.6794C634.91 91.5733 636.956 89.1869 639.093 86.3761C641.23 83.5654 642.98 81.088 642.98 80.8835C642.98 80.6789 644.2 79.2243 645.693 77.6636C647.178 76.1029 650.163 73.0195 652.323 70.8224C654.475 68.6253 658.627 64.6251 661.544 61.9432C664.462 59.2613 668.894 55.4732 671.395 53.5413C673.895 51.6018 680.033 47.3061 685.034 43.9878C690.035 40.6695 699.923 35.1011 707.008 31.616C714.093 28.1235 723.474 24.0475 727.846 22.5474C732.218 21.0474 739.212 18.8352 743.379 17.6306C747.547 16.4335 756.412 14.3955 763.08 13.1152C769.748 11.8348 778.098 10.4787 781.644 10.0999C785.191 9.7211 797.974 9.50897 810.059 9.63777ZM994.377 35.8208C1029.84 35.8056 1033.45 35.9193 1035.94 37.1315C1037.44 37.8588 1039.2 39.3058 1039.85 40.3513C1040.5 41.3892 1041.3 43.2681 1041.63 44.5182C1042.02 46.0182 1041.46 51.7079 1039.98 61.1856C1038.74 69.1026 1037.05 79.6713 1036.23 84.6715C1035.41 89.6717 1033.87 99.5586 1032.82 106.642C1031.76 113.726 1029.85 126.514 1028.58 135.053C1027.31 143.591 1025.27 157.228 1024.05 165.357C1022.83 173.486 1020.81 187.123 1019.57 195.661C1018.33 204.2 1016.64 215.799 1015.81 221.42C1014.81 228.095 1014.55 231.913 1015.03 232.406C1015.43 232.822 1015.6 233.421 1015.4 233.731C1015.19 234.042 1015.37 234.981 1015.78 235.815C1016.2 236.648 1017.48 237.807 1018.62 238.398C1020.34 239.277 1028.58 239.474 1110.12 239.588L1113.53 241.3C1116.03 242.558 1117.4 243.921 1120.41 249.831L1118.52 261.574C1117.47 268.028 1115.6 279.794 1114.36 287.711C1113.13 295.628 1111.56 306.023 1110.89 310.818C1110.21 315.614 1109.36 320.554 1108.99 321.804C1108.62 323.054 1107.01 325.44 1105.41 327.107C1103.82 328.774 1102 330.312 1101.39 330.516C1100.77 330.721 1055.6 331.069 1001.01 331.274C926.28 331.562 901.464 331.433 900.608 330.774C899.668 330.046 900.578 329.259 905.882 326.228C909.413 324.213 912.8 322.054 913.406 321.425C914.02 320.796 914.664 320.463 914.838 320.667C915.012 320.872 917.899 319 921.256 316.5C924.613 314 929.924 309.394 933.069 306.273C936.206 303.144 939.388 299.909 940.139 299.075C940.889 298.242 941.51 297.136 941.518 296.613C941.518 296.09 941.866 295.666 942.283 295.666C942.7 295.666 943.806 294.386 944.738 292.825C945.678 291.264 946.36 289.726 946.253 289.416C946.155 289.105 946.413 288.848 946.829 288.848C947.246 288.848 947.413 288.507 947.208 288.09C947.004 287.673 947.17 287.332 947.587 287.332C948.004 287.332 948.171 286.991 947.966 286.575C947.761 286.158 947.928 285.817 948.345 285.817C948.762 285.817 948.928 285.476 948.724 285.06C948.519 284.643 948.686 284.302 949.103 284.302C949.519 284.302 949.686 283.794 949.481 283.165C949.277 282.537 949.451 281.946 949.875 281.84C950.307 281.734 950.754 280.453 950.876 278.999C950.997 277.544 951.33 275.923 951.618 275.4C951.899 274.877 952.126 273.688 952.111 272.748C952.096 271.809 952.618 267.809 953.27 263.846C953.914 259.884 955.286 251.194 956.301 244.527C957.324 237.86 959.021 226.784 960.074 219.905C961.135 213.026 962.158 206.041 962.363 204.374C962.567 202.707 963.408 197.078 964.219 191.873C965.038 186.661 966.591 176.774 967.674 169.903C968.766 163.031 969.743 156.038 969.857 154.372C969.97 152.705 970.342 150.826 970.683 150.205C971.024 149.584 971.342 146.197 971.38 142.689C971.433 138.174 971.175 136.242 970.508 136.06C969.986 135.924 969.736 135.469 969.94 135.053C970.145 134.636 969.66 132.848 968.849 131.075C968.038 129.302 966.508 127.257 965.439 126.529C964.234 125.704 963.712 124.848 964.068 124.264C964.442 123.643 964.315 123.517 963.689 123.885C963.113 124.226 962.446 123.855 961.984 122.931C961.567 122.097 960.885 121.59 960.469 121.794C960.052 121.999 959.711 121.832 959.711 121.416C959.711 120.999 957.832 119.976 955.543 119.143C952.285 117.953 949.481 117.628 933.948 117.628L934.228 115.544C934.38 114.4 934.683 112.946 934.895 112.324C935.107 111.703 936.236 105.733 937.403 99.0661C938.57 92.3991 939.586 86.2625 939.661 85.4291C939.745 84.5957 940.002 83.0578 940.252 82.0199C940.495 80.9744 941.76 74.4968 943.056 67.6253C944.359 60.7537 945.556 53.9353 945.731 52.4731C945.897 51.0109 946.405 48.2911 946.86 46.4122C947.314 44.5333 948.413 41.9347 949.307 40.6316C950.194 39.3285 951.959 37.7148 953.232 37.0481C955.263 35.9875 960.279 35.8359 994.377 35.8208ZM774.067 124.711C777.719 124.855 780.144 125.484 783.455 127.143C786.1 128.461 789.298 130.916 791.283 133.159C793.761 135.954 795.049 138.333 796.208 142.25C797.269 145.841 797.633 148.652 797.345 150.962C797.11 152.841 796.231 156.251 795.39 158.539C794.435 161.145 792.495 164.13 790.214 166.509C788.184 168.622 784.751 171.138 782.47 172.191C779.076 173.744 777.242 174.062 771.862 174.024C768.278 174.001 764.588 173.835 763.648 173.645C762.709 173.463 761.951 173.138 761.966 172.933C761.974 172.729 761.125 172.13 760.072 171.607C759.019 171.085 757.981 170.66 757.776 170.66C757.571 170.66 756.018 169.213 754.336 167.44C752.646 165.668 751.282 163.963 751.305 163.652C751.32 163.342 750.994 163.084 750.578 163.084C750.161 163.084 749.873 162.827 749.941 162.516C750.009 162.205 749.668 161.008 749.183 159.864C748.698 158.72 748.304 157.44 748.304 157.023C748.304 156.607 748.047 156.266 747.736 156.266C747.425 156.266 747.206 153.622 747.259 150.394C747.304 147.167 747.797 143.333 748.342 141.871C748.895 140.409 749.252 139.045 749.138 138.841C749.017 138.636 749.471 138.204 750.13 137.894C750.79 137.583 751.161 136.985 750.956 136.568C750.752 136.151 750.919 135.81 751.335 135.81C751.752 135.81 752.093 135.469 752.093 135.053C752.093 134.636 753.283 133.106 754.745 131.643C756.2 130.181 757.397 129.166 757.397 129.371C757.397 129.575 758.761 128.893 760.428 127.855C762.095 126.81 764.74 125.636 766.3 125.234C767.861 124.832 771.354 124.598 774.067 124.711ZM836.959 130.128C837.58 130.265 839.459 130.605 841.126 130.893C842.793 131.181 845.347 132.03 846.809 132.787C848.264 133.545 850.552 135.303 851.878 136.689C853.212 138.083 854.993 140.75 855.841 142.629C856.751 144.636 857.395 147.667 857.402 150.015C857.41 152.205 856.902 155.182 856.281 156.645C855.652 158.107 855.402 159.304 855.712 159.311C856.023 159.311 855.94 159.569 855.523 159.88C855.106 160.183 853.568 161.796 852.098 163.463C850.628 165.13 849.181 166.577 848.878 166.683C848.575 166.789 847.218 167.334 845.862 167.903C844.506 168.463 842.035 169.183 840.368 169.486C838.348 169.86 835.885 169.643 832.981 168.834C829.988 168.009 827.495 166.622 825.024 164.41C823.039 162.637 821.334 160.933 821.236 160.622C821.13 160.311 820.683 158.773 820.228 157.213C819.781 155.652 819.228 153.857 819 153.235C818.766 152.614 818.561 151.243 818.531 150.205C818.5 149.159 818.713 147.887 819 147.364C819.296 146.841 819.614 145.561 819.72 144.523C819.826 143.477 820.167 142.629 820.478 142.629C820.789 142.629 821.205 141.864 821.402 140.924C821.599 139.985 821.774 139.136 821.781 139.03C821.797 138.924 823.426 137.469 825.403 135.795C827.381 134.113 829.427 132.409 829.95 132.007C830.472 131.598 830.821 131.439 830.73 131.643C830.639 131.855 831.745 131.545 833.193 130.954C834.64 130.371 836.33 129.999 836.959 130.128Z" fill="white"/>
</svg>
