<svg xmlns="http://www.w3.org/2000/svg" viewBox="0 0 180 40">
  <defs>
    <linearGradient id="logoGradLight" x1="0%" y1="0%" x2="100%" y2="100%">
      <stop offset="0%" style="stop-color:#8B5CF6"/>
      <stop offset="100%" style="stop-color:#7C3AED"/>
    </linearGradient>
  </defs>
  <circle cx="20" cy="20" r="16" fill="url(#logoGradLight)"/>
  <path d="M20 10c-5.5 0-10 4.5-10 10v7c0 0.6 0.4 1 1 1s1-0.4 1-1v-1c0-0.6 0.4-1 1-1s1 0.4 1 1v1c0 0.6 0.4 1 1 1s1-0.4 1-1v-1c0-0.6 0.4-1 1-1s1 0.4 1 1v1c0 0.6 0.4 1 1 1s1-0.4 1-1v-1c0-0.6 0.4-1 1-1s1 0.4 1 1v1c0 0.6 0.4 1 1 1s1-0.4 1-1v-7c0-5.5-4.5-10-10-10zm-3 11c-1 0-1.8-0.8-1.8-1.8s0.8-1.8 1.8-1.8 1.8 0.8 1.8 1.8-0.8 1.8-1.8 1.8zm6 0c-1 0-1.8-0.8-1.8-1.8s0.8-1.8 1.8-1.8 1.8 0.8 1.8 1.8-0.8 1.8-1.8 1.8z" fill="#FAFAFA"/>
  <text x="48" y="27" font-family="system-ui, -apple-system, sans-serif" font-size="18" font-weight="600" fill="#0A0A0F">Ghost Link</text>
</svg>
